<svg width="296" height="64" viewBox="0 0 296 64" fill="none" xmlns="http://www.w3.org/2000/svg">
    <path
        d="M33.8346 32C33.8346 34.0483 33.4725 35.9325 32.7485 37.6525C32.0401 39.3724 31.0563 40.8579 29.7971 42.1087C28.5378 43.344 27.0425 44.3134 25.311 45.0171C23.5795 45.7207 21.6985 46.0725 19.668 46.0725H3.09304C2.6523 46.0725 2.24304 45.9943 1.86527 45.838C1.48749 45.6816 1.15694 45.4705 0.873607 45.2047C0.606016 44.9232 0.393517 44.5949 0.23611 44.2196C0.0787033 43.8443 0 43.4378 0 43V15.5117C0 15.0896 0.0787033 14.6908 0.23611 14.3156C0.393517 13.9403 0.606016 13.6119 0.873607 13.3305C1.15694 13.049 1.48749 12.8301 1.86527 12.6738C2.24304 12.5174 2.6523 12.4392 3.09304 12.4392H19.668C21.6985 12.4392 23.5795 12.791 25.311 13.4947C27.0425 14.1983 28.5378 15.1756 29.7971 16.4264C31.0563 17.6617 32.0401 19.1471 32.7485 20.8827C33.4725 22.6027 33.8346 24.479 33.8346 26.5117V32ZM27.6957 26.5117C27.6957 25.3234 27.4989 24.2367 27.1054 23.2516C26.7276 22.2665 26.1846 21.43 25.4763 20.742C24.7679 20.0384 23.9179 19.4989 22.9263 19.1237C21.9504 18.7328 20.8643 18.5373 19.668 18.5373H6.13886V39.9744H19.668C20.8643 39.9744 21.9504 39.7868 22.9263 39.4115C23.9179 39.0206 24.7679 38.4812 25.4763 37.7932C26.1846 37.0896 26.7276 36.253 27.1054 35.2836C27.4989 34.2985 27.6957 33.204 27.6957 32V26.5117Z"
        fill="white" />
    <path
        d="M65.3788 37.6759C65.3788 38.5203 65.2293 39.435 64.9302 40.42C64.6312 41.3895 64.1432 42.2964 63.4664 43.1407C62.8053 43.9694 61.9316 44.6652 60.8455 45.2281C59.7752 45.791 58.4687 46.0725 56.9261 46.0725H45.8526C45.0026 46.0725 44.0817 45.924 43.0901 45.6269C42.1141 45.3298 41.2012 44.8529 40.3512 44.1962C39.5169 43.5238 38.8165 42.656 38.2498 41.5928C37.6831 40.5139 37.3998 39.2082 37.3998 37.6759C37.3998 36.8316 37.5494 35.9168 37.8484 34.9318C38.1475 33.9467 38.6276 33.0398 39.2887 32.2111C39.9655 31.3667 40.8392 30.6631 41.9095 30.1002C42.9956 29.5373 44.31 29.2559 45.8526 29.2559H56.9261V35.0725H45.8526C45.0183 35.0725 44.3729 35.3305 43.9165 35.8465C43.46 36.3468 43.2317 36.9723 43.2317 37.7228C43.2317 38.5203 43.4915 39.1457 44.0109 39.5991C44.5461 40.037 45.1757 40.2559 45.8998 40.2559H56.9261C57.7604 40.2559 58.4057 40.0057 58.8622 39.5053C59.3187 39.005 59.5469 38.3795 59.5469 37.629V29.1151C59.5469 28.3177 59.2951 27.6844 58.7914 27.2154C58.3034 26.7463 57.6817 26.5117 56.9261 26.5117H43.4442V20.7185H56.9261C57.7761 20.7185 58.6891 20.8671 59.665 21.1642C60.6566 21.4613 61.5696 21.946 62.4039 22.6183C63.2539 23.2751 63.9622 24.1429 64.5289 25.2217C65.0955 26.285 65.3788 27.5828 65.3788 29.1151V37.6759Z"
        fill="white" />
    <path
        d="M98.7648 37.5117C98.7648 38.5593 98.631 39.5053 98.3634 40.3497C98.0958 41.1784 97.7417 41.9133 97.3009 42.5544C96.8602 43.1798 96.3486 43.7193 95.7662 44.1727C95.1838 44.6105 94.5699 44.9701 93.9245 45.2516C93.2949 45.533 92.6574 45.7441 92.0121 45.8849C91.3667 46.0099 90.7528 46.0725 90.1704 46.0725H79.0968V39.9744H90.1704C90.9889 39.9744 91.6028 39.7633 92.0121 39.3412C92.4213 38.919 92.6259 38.3092 92.6259 37.5117V29.3028C92.6259 28.4584 92.4134 27.833 91.9884 27.4264C91.5792 27.0199 90.9732 26.8166 90.1704 26.8166H79.1441C78.3098 26.8166 77.6802 27.0277 77.2552 27.4499C76.8302 27.8564 76.6177 28.4584 76.6177 29.2559V54H70.4788V29.2559C70.4788 28.2082 70.6126 27.2701 70.8802 26.4414C71.1478 25.6127 71.502 24.8856 71.9427 24.2601C72.3992 23.619 72.9186 23.0796 73.501 22.6418C74.0834 22.1883 74.6895 21.8209 75.3191 21.5394C75.9644 21.258 76.6098 21.0547 77.2552 20.9296C77.9163 20.7889 78.5302 20.7185 79.0968 20.7185H90.1704C91.225 20.7185 92.1695 20.8515 93.0037 21.1173C93.838 21.3831 94.5699 21.7349 95.1995 22.1727C95.8449 22.6105 96.388 23.1187 96.8287 23.6972C97.2852 24.2758 97.6551 24.8856 97.9384 25.5267C98.2217 26.1521 98.4264 26.7854 98.5523 27.4264C98.694 28.0675 98.7648 28.6773 98.7648 29.2559V37.5117Z"
        fill="white" />
    <path
        d="M132.151 37.5117C132.151 38.5593 132.017 39.5053 131.749 40.3497C131.482 41.1784 131.128 41.9133 130.687 42.5544C130.246 43.1798 129.735 43.7193 129.152 44.1727C128.57 44.6105 127.956 44.9701 127.31 45.2516C126.681 45.533 126.043 45.7441 125.398 45.8849C124.753 46.0099 124.139 46.0725 123.556 46.0725H112.483V39.9744H123.556C124.375 39.9744 124.989 39.7633 125.398 39.3412C125.807 38.919 126.012 38.3092 126.012 37.5117V29.3028C126.012 28.4584 125.799 27.833 125.374 27.4264C124.965 27.0199 124.359 26.8166 123.556 26.8166H112.53C111.696 26.8166 111.066 27.0277 110.641 27.4499C110.216 27.8564 110.004 28.4584 110.004 29.2559V54H103.865V29.2559C103.865 28.2082 103.999 27.2701 104.266 26.4414C104.534 25.6127 104.888 24.8856 105.329 24.2601C105.785 23.619 106.305 23.0796 106.887 22.6418C107.469 22.1883 108.075 21.8209 108.705 21.5394C109.35 21.258 109.996 21.0547 110.641 20.9296C111.302 20.7889 111.916 20.7185 112.483 20.7185H123.556C124.611 20.7185 125.555 20.8515 126.39 21.1173C127.224 21.3831 127.956 21.7349 128.585 22.1727C129.231 22.6105 129.774 23.1187 130.215 23.6972C130.671 24.2758 131.041 24.8856 131.324 25.5267C131.608 26.1521 131.812 26.7854 131.938 27.4264C132.08 28.0675 132.151 28.6773 132.151 29.2559V37.5117Z"
        fill="white" />
    <path
        d="M160.46 26.8166H149.741V46.0725H143.531V26.8166H135.551V20.7185H143.531V12.4392H149.741V20.7185H160.46V26.8166Z"
        fill="white" />
    <path d="M170.731 15.5117H164.592V10H170.731V15.5117ZM170.731 46.0725H164.592V20.7185H170.731V46.0725Z"
        fill="white" />
    <path
        d="M200.812 22.5949C201.063 23.1734 201.126 23.7598 201 24.3539C200.89 24.9481 200.623 25.4641 200.198 25.9019L186.007 39.9744H200.764V46.0725H178.617C177.988 46.0725 177.413 45.9005 176.894 45.5565C176.39 45.1969 176.012 44.7434 175.76 44.1962C175.524 43.6176 175.461 43.0313 175.571 42.4371C175.697 41.8273 175.988 41.2957 176.445 40.8422L190.564 26.8166H175.807V20.7185H198.002C198.616 20.7185 199.174 20.8827 199.678 21.2111C200.198 21.5394 200.575 22.0007 200.812 22.5949Z"
        fill="white" />
    <path
        d="M233.088 29.1151C233.088 29.9595 232.938 30.8742 232.639 31.8593C232.34 32.8287 231.852 33.7356 231.175 34.58C230.514 35.4087 229.641 36.1045 228.554 36.6674C227.484 37.2303 226.178 37.5117 224.635 37.5117H213.561V31.7185H224.635C225.469 31.7185 226.115 31.4684 226.571 30.968C227.028 30.452 227.256 29.8188 227.256 29.0682C227.256 28.2708 226.996 27.6453 226.477 27.1919C225.973 26.7385 225.359 26.5117 224.635 26.5117H213.561C212.727 26.5117 212.082 26.7697 211.625 27.2857C211.169 27.7861 210.941 28.4115 210.941 29.162V37.6759C210.941 38.489 211.192 39.1222 211.696 39.5757C212.216 40.0291 212.853 40.2559 213.609 40.2559H224.635V46.0725H213.561C212.711 46.0725 211.791 45.924 210.799 45.6269C209.823 45.3298 208.91 44.8529 208.06 44.1962C207.226 43.5238 206.525 42.656 205.959 41.5928C205.392 40.5139 205.109 39.2082 205.109 37.6759V29.1151C205.109 28.2708 205.258 27.3639 205.557 26.3945C205.856 25.4094 206.337 24.5025 206.998 23.6738C207.674 22.8294 208.548 22.1258 209.618 21.5629C210.705 21 212.019 20.7185 213.561 20.7185H224.635C225.485 20.7185 226.398 20.8671 227.374 21.1642C228.366 21.4613 229.279 21.946 230.113 22.6183C230.963 23.2751 231.671 24.1429 232.238 25.2217C232.804 26.285 233.088 27.5828 233.088 29.1151Z"
        fill="white" />
    <path
        d="M241.304 43C241.304 43.4222 241.218 43.8209 241.045 44.1962C240.887 44.5558 240.667 44.8763 240.384 45.1578C240.116 45.4236 239.793 45.6347 239.415 45.791C239.053 45.9474 238.668 46.0256 238.259 46.0256C237.834 46.0256 237.432 45.9474 237.054 45.791C236.692 45.6347 236.37 45.4236 236.086 45.1578C235.819 44.8763 235.606 44.5558 235.449 44.1962C235.291 43.8209 235.213 43.4222 235.213 43C235.213 42.5935 235.291 42.2104 235.449 41.8507C235.606 41.4755 235.819 41.1549 236.086 40.8891C236.37 40.6077 236.692 40.3888 237.054 40.2324C237.432 40.0604 237.834 39.9744 238.259 39.9744C238.668 39.9744 239.053 40.0604 239.415 40.2324C239.793 40.3888 240.116 40.6077 240.384 40.8891C240.667 41.1549 240.887 41.4755 241.045 41.8507C241.218 42.2104 241.304 42.5935 241.304 43Z"
        fill="white" />
    <path d="M252.331 15.5117H246.192V10H252.331V15.5117ZM252.331 46.0725H246.192V20.7185H252.331V46.0725Z"
        fill="white" />
    <path
        d="M286 37.5117C286 38.5593 285.866 39.5053 285.599 40.3497C285.331 41.1784 284.977 41.9133 284.536 42.5544C284.095 43.1798 283.584 43.7193 283.001 44.1727C282.419 44.6105 281.805 44.9701 281.16 45.2516C280.53 45.533 279.885 45.7441 279.224 45.8849C278.578 46.0099 277.964 46.0725 277.382 46.0725H266.308C265.458 46.0725 264.53 45.924 263.522 45.6269C262.515 45.3298 261.578 44.8451 260.713 44.1727C259.863 43.4847 259.146 42.6013 258.564 41.5224C257.997 40.4279 257.714 39.091 257.714 37.5117V29.2559C257.714 27.6923 257.997 26.371 258.564 25.2921C259.146 24.1976 259.863 23.3141 260.713 22.6418C261.578 21.9538 262.515 21.4613 263.522 21.1642C264.53 20.8671 265.458 20.7185 266.308 20.7185H277.382C278.956 20.7185 280.294 21 281.396 21.5629C282.498 22.1258 283.387 22.8372 284.064 23.6972C284.741 24.5416 285.229 25.4641 285.528 26.4648C285.843 27.4655 286 28.3959 286 29.2559V37.5117ZM279.861 29.3028C279.861 28.4584 279.649 27.833 279.224 27.4264C278.799 27.0199 278.185 26.8166 277.382 26.8166H266.356C265.537 26.8166 264.915 27.0277 264.49 27.4499C264.065 27.8564 263.853 28.4584 263.853 29.2559V37.5117C263.853 38.3092 264.065 38.919 264.49 39.3412C264.915 39.7633 265.537 39.9744 266.356 39.9744H277.382C278.216 39.9744 278.838 39.7633 279.247 39.3412C279.657 38.919 279.861 38.3092 279.861 37.5117V29.3028Z"
        fill="white" />
    <g clip-path="url(#clip0_0_1)">
        <path
            d="M33.8346 32C33.8346 34.0483 33.4725 35.9325 32.7485 37.6525C32.0401 39.3724 31.0563 40.8579 29.7971 42.1087C28.5378 43.344 27.0425 44.3134 25.311 45.0171C23.5795 45.7207 21.6985 46.0725 19.668 46.0725H3.09304C2.6523 46.0725 2.24304 45.9943 1.86527 45.838C1.48749 45.6816 1.15694 45.4705 0.873607 45.2047C0.606016 44.9232 0.393517 44.5949 0.23611 44.2196C0.0787033 43.8443 0 43.4378 0 43V15.5117C0 15.0896 0.0787033 14.6908 0.23611 14.3156C0.393517 13.9403 0.606016 13.6119 0.873607 13.3305C1.15694 13.049 1.48749 12.8301 1.86527 12.6738C2.24304 12.5174 2.6523 12.4392 3.09304 12.4392H19.668C21.6985 12.4392 23.5795 12.791 25.311 13.4947C27.0425 14.1983 28.5378 15.1756 29.7971 16.4264C31.0563 17.6617 32.0401 19.1471 32.7485 20.8827C33.4725 22.6027 33.8346 24.479 33.8346 26.5117V32ZM27.6957 26.5117C27.6957 25.3234 27.4989 24.2367 27.1054 23.2516C26.7276 22.2665 26.1846 21.43 25.4763 20.742C24.7679 20.0384 23.9179 19.4989 22.9263 19.1237C21.9504 18.7328 20.8643 18.5373 19.668 18.5373H6.13886V39.9744H19.668C20.8643 39.9744 21.9504 39.7868 22.9263 39.4115C23.9179 39.0206 24.7679 38.4812 25.4763 37.7932C26.1846 37.0896 26.7276 36.253 27.1054 35.2836C27.4989 34.2985 27.6957 33.204 27.6957 32V26.5117Z"
            fill="#8000FF" />
        <path
            d="M65.3788 37.6759C65.3788 38.5203 65.2293 39.435 64.9302 40.42C64.6312 41.3895 64.1432 42.2964 63.4664 43.1407C62.8053 43.9694 61.9316 44.6652 60.8455 45.2281C59.7752 45.791 58.4687 46.0725 56.9261 46.0725H45.8526C45.0026 46.0725 44.0817 45.924 43.0901 45.6269C42.1141 45.3298 41.2012 44.8529 40.3512 44.1962C39.5169 43.5238 38.8165 42.656 38.2498 41.5928C37.6831 40.5139 37.3998 39.2082 37.3998 37.6759C37.3998 36.8316 37.5494 35.9168 37.8484 34.9318C38.1475 33.9467 38.6276 33.0398 39.2887 32.2111C39.9655 31.3667 40.8392 30.6631 41.9095 30.1002C42.9956 29.5373 44.31 29.2559 45.8526 29.2559H56.9261V35.0725H45.8526C45.0183 35.0725 44.3729 35.3305 43.9165 35.8465C43.46 36.3468 43.2317 36.9723 43.2317 37.7228C43.2317 38.5203 43.4915 39.1457 44.0109 39.5991C44.5461 40.037 45.1757 40.2559 45.8998 40.2559H56.9261C57.7604 40.2559 58.4057 40.0057 58.8622 39.5053C59.3187 39.005 59.5469 38.3795 59.5469 37.629V29.1151C59.5469 28.3177 59.2951 27.6844 58.7914 27.2154C58.3034 26.7463 57.6817 26.5117 56.9261 26.5117H43.4442V20.7185H56.9261C57.7761 20.7185 58.6891 20.8671 59.665 21.1642C60.6566 21.4613 61.5696 21.946 62.4039 22.6183C63.2539 23.2751 63.9622 24.1429 64.5289 25.2217C65.0955 26.285 65.3788 27.5828 65.3788 29.1151V37.6759Z"
            fill="#8000FF" />
        <path
            d="M98.7648 37.5117C98.7648 38.5593 98.631 39.5053 98.3634 40.3497C98.0958 41.1784 97.7417 41.9133 97.3009 42.5544C96.8602 43.1798 96.3486 43.7193 95.7662 44.1727C95.1838 44.6105 94.5699 44.9701 93.9245 45.2516C93.2949 45.533 92.6574 45.7441 92.0121 45.8849C91.3667 46.0099 90.7528 46.0725 90.1704 46.0725H79.0968V39.9744H90.1704C90.9889 39.9744 91.6028 39.7633 92.0121 39.3412C92.4213 38.919 92.6259 38.3092 92.6259 37.5117V29.3028C92.6259 28.4584 92.4134 27.833 91.9884 27.4264C91.5792 27.0199 90.9732 26.8166 90.1704 26.8166H79.1441C78.3098 26.8166 77.6802 27.0277 77.2552 27.4499C76.8302 27.8564 76.6177 28.4584 76.6177 29.2559V54H70.4788V29.2559C70.4788 28.2082 70.6126 27.2701 70.8802 26.4414C71.1478 25.6127 71.502 24.8856 71.9427 24.2601C72.3992 23.619 72.9186 23.0796 73.501 22.6418C74.0834 22.1883 74.6895 21.8209 75.3191 21.5394C75.9644 21.258 76.6098 21.0547 77.2552 20.9296C77.9163 20.7889 78.5302 20.7185 79.0968 20.7185H90.1704C91.225 20.7185 92.1695 20.8515 93.0037 21.1173C93.838 21.3831 94.5699 21.7349 95.1995 22.1727C95.8449 22.6105 96.388 23.1187 96.8287 23.6972C97.2852 24.2758 97.6551 24.8856 97.9384 25.5267C98.2217 26.1521 98.4264 26.7854 98.5523 27.4264C98.694 28.0675 98.7648 28.6773 98.7648 29.2559V37.5117Z"
            fill="#8000FF" />
        <path
            d="M132.151 37.5117C132.151 38.5593 132.017 39.5053 131.749 40.3497C131.482 41.1784 131.128 41.9133 130.687 42.5544C130.246 43.1798 129.735 43.7193 129.152 44.1727C128.57 44.6105 127.956 44.9701 127.31 45.2516C126.681 45.533 126.043 45.7441 125.398 45.8849C124.753 46.0099 124.139 46.0725 123.556 46.0725H112.483V39.9744H123.556C124.375 39.9744 124.989 39.7633 125.398 39.3412C125.807 38.919 126.012 38.3092 126.012 37.5117V29.3028C126.012 28.4584 125.799 27.833 125.374 27.4264C124.965 27.0199 124.359 26.8166 123.556 26.8166H112.53C111.696 26.8166 111.066 27.0277 110.641 27.4499C110.216 27.8564 110.004 28.4584 110.004 29.2559V54H103.865V29.2559C103.865 28.2082 103.999 27.2701 104.266 26.4414C104.534 25.6127 104.888 24.8856 105.329 24.2601C105.785 23.619 106.305 23.0796 106.887 22.6418C107.469 22.1883 108.075 21.8209 108.705 21.5394C109.35 21.258 109.996 21.0547 110.641 20.9296C111.302 20.7889 111.916 20.7185 112.483 20.7185H123.556C124.611 20.7185 125.555 20.8515 126.39 21.1173C127.224 21.3831 127.956 21.7349 128.585 22.1727C129.231 22.6105 129.774 23.1187 130.215 23.6972C130.671 24.2758 131.041 24.8856 131.324 25.5267C131.608 26.1521 131.812 26.7854 131.938 27.4264C132.08 28.0675 132.151 28.6773 132.151 29.2559V37.5117Z"
            fill="#8000FF" />
        <path
            d="M160.46 26.8166H149.741V46.0725H143.531V26.8166H135.551V20.7185H143.531V12.4392H149.741V20.7185H160.46V26.8166Z"
            fill="#8000FF" />
        <path d="M170.731 15.5117H164.592V10H170.731V15.5117ZM170.731 46.0725H164.592V20.7185H170.731V46.0725Z"
            fill="#8000FF" />
        <path
            d="M200.812 22.5949C201.063 23.1734 201.126 23.7598 201 24.3539C200.89 24.9481 200.623 25.4641 200.198 25.9019L186.007 39.9744H200.764V46.0725H178.617C177.988 46.0725 177.413 45.9005 176.894 45.5565C176.39 45.1969 176.012 44.7434 175.76 44.1962C175.524 43.6176 175.461 43.0313 175.571 42.4371C175.697 41.8273 175.988 41.2957 176.445 40.8422L190.564 26.8166H175.807V20.7185H198.002C198.616 20.7185 199.174 20.8827 199.678 21.2111C200.198 21.5394 200.575 22.0007 200.812 22.5949Z"
            fill="#8000FF" />
        <path
            d="M233.088 29.1151C233.088 29.9595 232.938 30.8742 232.639 31.8593C232.34 32.8287 231.852 33.7356 231.175 34.58C230.514 35.4087 229.641 36.1045 228.554 36.6674C227.484 37.2303 226.178 37.5117 224.635 37.5117H213.561V31.7185H224.635C225.469 31.7185 226.115 31.4684 226.571 30.968C227.028 30.452 227.256 29.8188 227.256 29.0682C227.256 28.2708 226.996 27.6453 226.477 27.1919C225.973 26.7385 225.359 26.5117 224.635 26.5117H213.561C212.727 26.5117 212.082 26.7697 211.625 27.2857C211.169 27.7861 210.941 28.4115 210.941 29.162V37.6759C210.941 38.489 211.192 39.1222 211.696 39.5757C212.216 40.0291 212.853 40.2559 213.609 40.2559H224.635V46.0725H213.561C212.711 46.0725 211.791 45.924 210.799 45.6269C209.823 45.3298 208.91 44.8529 208.06 44.1962C207.226 43.5238 206.525 42.656 205.959 41.5928C205.392 40.5139 205.109 39.2082 205.109 37.6759V29.1151C205.109 28.2708 205.258 27.3639 205.557 26.3945C205.856 25.4094 206.337 24.5025 206.998 23.6738C207.674 22.8294 208.548 22.1258 209.618 21.5629C210.705 21 212.019 20.7185 213.561 20.7185H224.635C225.485 20.7185 226.398 20.8671 227.374 21.1642C228.366 21.4613 229.279 21.946 230.113 22.6183C230.963 23.2751 231.671 24.1429 232.238 25.2217C232.804 26.285 233.088 27.5828 233.088 29.1151Z"
            fill="#8000FF" />
        <path
            d="M241.304 43C241.304 43.4222 241.218 43.8209 241.045 44.1962C240.887 44.5558 240.667 44.8763 240.384 45.1578C240.116 45.4236 239.793 45.6347 239.415 45.791C239.053 45.9474 238.668 46.0256 238.259 46.0256C237.834 46.0256 237.432 45.9474 237.054 45.791C236.692 45.6347 236.37 45.4236 236.086 45.1578C235.819 44.8763 235.606 44.5558 235.449 44.1962C235.291 43.8209 235.213 43.4222 235.213 43C235.213 42.5935 235.291 42.2104 235.449 41.8507C235.606 41.4755 235.819 41.1549 236.086 40.8891C236.37 40.6077 236.692 40.3888 237.054 40.2324C237.432 40.0604 237.834 39.9744 238.259 39.9744C238.668 39.9744 239.053 40.0604 239.415 40.2324C239.793 40.3888 240.116 40.6077 240.384 40.8891C240.667 41.1549 240.887 41.4755 241.045 41.8507C241.218 42.2104 241.304 42.5935 241.304 43Z"
            fill="#8000FF" />
        <path d="M252.331 15.5117H246.192V10H252.331V15.5117ZM252.331 46.0725H246.192V20.7185H252.331V46.0725Z"
            fill="#8000FF" />
        <path
            d="M286 37.5117C286 38.5593 285.866 39.5053 285.599 40.3497C285.331 41.1784 284.977 41.9133 284.536 42.5544C284.095 43.1798 283.584 43.7193 283.001 44.1727C282.419 44.6105 281.805 44.9701 281.16 45.2516C280.53 45.533 279.885 45.7441 279.224 45.8849C278.578 46.0099 277.964 46.0725 277.382 46.0725H266.308C265.458 46.0725 264.53 45.924 263.522 45.6269C262.515 45.3298 261.578 44.8451 260.713 44.1727C259.863 43.4847 259.146 42.6013 258.564 41.5224C257.997 40.4279 257.714 39.091 257.714 37.5117V29.2559C257.714 27.6923 257.997 26.371 258.564 25.2921C259.146 24.1976 259.863 23.3141 260.713 22.6418C261.578 21.9538 262.515 21.4613 263.522 21.1642C264.53 20.8671 265.458 20.7185 266.308 20.7185H277.382C278.956 20.7185 280.294 21 281.396 21.5629C282.498 22.1258 283.387 22.8372 284.064 23.6972C284.741 24.5416 285.229 25.4641 285.528 26.4648C285.843 27.4655 286 28.3959 286 29.2559V37.5117ZM279.861 29.3028C279.861 28.4584 279.649 27.833 279.224 27.4264C278.799 27.0199 278.185 26.8166 277.382 26.8166H266.356C265.537 26.8166 264.915 27.0277 264.49 27.4499C264.065 27.8564 263.853 28.4584 263.853 29.2559V37.5117C263.853 38.3092 264.065 38.919 264.49 39.3412C264.915 39.7633 265.537 39.9744 266.356 39.9744H277.382C278.216 39.9744 278.838 39.7633 279.247 39.3412C279.657 38.919 279.861 38.3092 279.861 37.5117V29.3028Z"
            fill="#8000FF" />
    </g>
    <defs>
        <clipPath id="clip0_0_1">
            <rect width="53" height="64" fill="white" transform="translate(243)" />
        </clipPath>
    </defs>
</svg>