<svg width="126" height="76" viewBox="0 0 126 76" fill="none" xmlns="http://www.w3.org/2000/svg">
    <path fill-rule="evenodd" clip-rule="evenodd"
        d="M18.3817 5.59375L33.9458 21.85L18.104 38.3964L2.68143 21.8446L18.3817 5.59375ZM3.83229 21.8554L18.1119 37.1806L32.7897 21.85L18.3791 6.79854L3.83229 21.8554Z"
        fill="white" />
    <path
        d="M0.123047 20.7116C0.123047 18.7467 1.64806 17.1539 3.52925 17.1539C5.41045 17.1539 6.93546 18.7467 6.93546 20.7116V23.2731C6.93546 25.238 5.41045 26.8308 3.52925 26.8308C1.64806 26.8308 0.123047 25.238 0.123047 23.2731V20.7116Z"
        fill="#AB58FF" />
    <path
        d="M14.8379 36.65C14.8379 34.6852 16.3629 33.0923 18.2441 33.0923C20.1252 33.0923 21.6503 34.6852 21.6503 36.65V39.2116C21.6503 41.1764 20.1252 42.7693 18.2441 42.7693C16.3629 42.7693 14.8379 41.1764 14.8379 39.2116V36.65Z"
        fill="#AB58FF" />
    <path
        d="M30.0976 20.1423C30.0976 18.1775 31.6227 16.5846 33.5039 16.5846C35.385 16.5846 36.9101 18.1775 36.9101 20.1423V22.7039C36.9101 24.6687 35.385 26.2616 33.5039 26.2616C31.6227 26.2616 30.0976 24.6687 30.0976 22.7039V20.1423Z"
        fill="#AB58FF" />
    <path
        d="M14.8379 5.0577C14.8379 3.09283 16.3629 1.5 18.2441 1.5C20.1252 1.5 21.6503 3.09283 21.6503 5.0577V7.61924C21.6503 9.5841 20.1252 11.1769 18.2441 11.1769C16.3629 11.1769 14.8379 9.5841 14.8379 7.61924V5.0577Z"
        fill="#AB58FF" />
    <path fill-rule="evenodd" clip-rule="evenodd"
        d="M18.3817 37.1862L33.9458 53.4424L18.104 69.9888L2.68143 53.437L18.3817 37.1862ZM3.83229 53.4479L18.1119 68.773L32.7897 53.4424L18.3791 38.391L3.83229 53.4479Z"
        fill="white" />
    <path
        d="M0.123047 52.304C0.123047 50.3391 1.64806 48.7463 3.52925 48.7463C5.41045 48.7463 6.93546 50.3391 6.93546 52.304V54.8655C6.93546 56.8304 5.41045 58.4232 3.52925 58.4232C1.64806 58.4232 0.123047 56.8304 0.123047 54.8655V52.304Z"
        fill="#AB58FF" />
    <path
        d="M14.8379 68.2424C14.8379 66.2776 16.3629 64.6847 18.2441 64.6847C20.1252 64.6847 21.6503 66.2776 21.6503 68.2424V70.804C21.6503 72.7688 20.1252 74.3617 18.2441 74.3617C16.3629 74.3617 14.8379 72.7688 14.8379 70.804V68.2424Z"
        fill="#AB58FF" />
    <path
        d="M30.0976 51.7347C30.0976 49.7699 31.6227 48.177 33.5039 48.177C35.385 48.177 36.9101 49.7699 36.9101 51.7347V54.2963C36.9101 56.2611 35.385 57.854 33.5039 57.854C31.6227 57.854 30.0976 56.2611 30.0976 54.2963V51.7347Z"
        fill="#AB58FF" />
    <path
        d="M14.8379 36.6501C14.8379 34.6852 16.3629 33.0924 18.2441 33.0924C20.1252 33.0924 21.6503 34.6852 21.6503 36.6501V39.2116C21.6503 41.1765 20.1252 42.7693 18.2441 42.7693C16.3629 42.7693 14.8379 41.1765 14.8379 39.2116V36.6501Z"
        fill="#AB58FF" />
    <path fill-rule="evenodd" clip-rule="evenodd"
        d="M36.6385 6.73217L52.2026 22.9884L36.3608 39.5348L20.9383 22.983L36.6385 6.73217ZM22.0891 22.9939L36.3687 38.319L51.0465 22.9884L36.6359 7.93697L22.0891 22.9939Z"
        fill="white" />
    <path
        d="M18.3799 21.85C18.3799 19.8851 19.9049 18.2923 21.7861 18.2923C23.6673 18.2923 25.1923 19.8851 25.1923 21.85V24.4115C25.1923 26.3764 23.6673 27.9692 21.7861 27.9692C19.9049 27.9692 18.3799 26.3764 18.3799 24.4115V21.85Z"
        fill="#AB58FF" />
    <path
        d="M33.0947 37.7885C33.0947 35.8236 34.6197 34.2308 36.5009 34.2308C38.3821 34.2308 39.9071 35.8236 39.9071 37.7885V40.35C39.9071 42.3149 38.3821 43.9077 36.5009 43.9077C34.6197 43.9077 33.0947 42.3149 33.0947 40.35V37.7885Z"
        fill="#AB58FF" />
    <path
        d="M48.3545 21.2808C48.3545 19.3159 49.8795 17.7231 51.7607 17.7231C53.6419 17.7231 55.1669 19.3159 55.1669 21.2808V23.8423C55.1669 25.8072 53.6419 27.4 51.7607 27.4C49.8795 27.4 48.3545 25.8072 48.3545 23.8423V21.2808Z"
        fill="#AB58FF" />
    <path
        d="M33.0947 6.19612C33.0947 4.23126 34.6197 2.63843 36.5009 2.63843C38.3821 2.63843 39.9071 4.23126 39.9071 6.19612V8.75766C39.9071 10.7225 38.3821 12.3154 36.5009 12.3154C34.6197 12.3154 33.0947 10.7225 33.0947 8.75766V6.19612Z"
        fill="#AB58FF" />
    <path fill-rule="evenodd" clip-rule="evenodd"
        d="M36.6385 38.3246L52.2026 54.5808L36.3608 71.1272L20.9383 54.5754L36.6385 38.3246ZM22.0891 54.5863L36.3687 69.9114L51.0465 54.5808L36.6359 39.5294L22.0891 54.5863Z"
        fill="white" />
    <path
        d="M18.3799 53.4424C18.3799 51.4775 19.9049 49.8847 21.7861 49.8847C23.6673 49.8847 25.1923 51.4775 25.1923 53.4424V56.0039C25.1923 57.9688 23.6673 59.5616 21.7861 59.5616C19.9049 59.5616 18.3799 57.9688 18.3799 56.0039V53.4424Z"
        fill="#AB58FF" />
    <path
        d="M33.0947 69.3809C33.0947 67.416 34.6197 65.8232 36.5009 65.8232C38.3821 65.8232 39.9071 67.416 39.9071 69.3809V71.9424C39.9071 73.9073 38.3821 75.5001 36.5009 75.5001C34.6197 75.5001 33.0947 73.9073 33.0947 71.9424V69.3809Z"
        fill="#AB58FF" />
    <path
        d="M48.3545 52.8732C48.3545 50.9083 49.8795 49.3155 51.7607 49.3155C53.6419 49.3155 55.1669 50.9083 55.1669 52.8732V55.4347C55.1669 57.3996 53.6419 58.9924 51.7607 58.9924C49.8795 58.9924 48.3545 57.3996 48.3545 55.4347V52.8732Z"
        fill="#AB58FF" />
    <path
        d="M33.0947 37.7885C33.0947 35.8237 34.6197 34.2308 36.5009 34.2308C38.3821 34.2308 39.9071 35.8237 39.9071 37.7885V40.3501C39.9071 42.3149 38.3821 43.9078 36.5009 43.9078C34.6197 43.9078 33.0947 42.3149 33.0947 40.3501V37.7885Z"
        fill="#AB58FF" />
    <path fill-rule="evenodd" clip-rule="evenodd"
        d="M57.3485 5.59375L72.9126 21.85L57.0708 38.3964L41.6482 21.8446L57.3485 5.59375ZM42.7991 21.8554L57.0787 37.1806L71.7565 21.85L57.3459 6.79854L42.7991 21.8554Z"
        fill="white" />
    <path
        d="M39.0898 20.7116C39.0898 18.7467 40.6149 17.1539 42.496 17.1539C44.3772 17.1539 45.9023 18.7467 45.9023 20.7116V23.2731C45.9023 25.238 44.3772 26.8308 42.496 26.8308C40.6149 26.8308 39.0898 25.238 39.0898 23.2731V20.7116Z"
        fill="#AB58FF" />
    <path
        d="M53.8046 36.65C53.8046 34.6852 55.3297 33.0923 57.2109 33.0923C59.092 33.0923 60.6171 34.6852 60.6171 36.65V39.2116C60.6171 41.1764 59.092 42.7693 57.2109 42.7693C55.3297 42.7693 53.8046 41.1764 53.8046 39.2116V36.65Z"
        fill="#AB58FF" />
    <path
        d="M69.0644 20.1423C69.0644 18.1775 70.5895 16.5846 72.4706 16.5846C74.3518 16.5846 75.8769 18.1775 75.8769 20.1423V22.7039C75.8769 24.6687 74.3518 26.2616 72.4706 26.2616C70.5895 26.2616 69.0644 24.6687 69.0644 22.7039V20.1423Z"
        fill="#AB58FF" />
    <path
        d="M53.8046 5.0577C53.8046 3.09283 55.3297 1.5 57.2109 1.5C59.092 1.5 60.6171 3.09283 60.6171 5.0577V7.61924C60.6171 9.5841 59.092 11.1769 57.2109 11.1769C55.3297 11.1769 53.8046 9.5841 53.8046 7.61924V5.0577Z"
        fill="#AB58FF" />
    <path fill-rule="evenodd" clip-rule="evenodd"
        d="M57.3485 37.1862L72.9126 53.4424L57.0708 69.9888L41.6482 53.437L57.3485 37.1862ZM42.7991 53.4479L57.0787 68.773L71.7565 53.4424L57.3459 38.391L42.7991 53.4479Z"
        fill="white" />
    <path
        d="M39.0898 52.304C39.0898 50.3391 40.6149 48.7463 42.496 48.7463C44.3772 48.7463 45.9023 50.3391 45.9023 52.304V54.8655C45.9023 56.8304 44.3772 58.4232 42.496 58.4232C40.6149 58.4232 39.0898 56.8304 39.0898 54.8655V52.304Z"
        fill="#AB58FF" />
    <path
        d="M53.8046 68.2424C53.8046 66.2776 55.3297 64.6847 57.2109 64.6847C59.092 64.6847 60.6171 66.2776 60.6171 68.2424V70.804C60.6171 72.7688 59.092 74.3617 57.2109 74.3617C55.3297 74.3617 53.8046 72.7688 53.8046 70.804V68.2424Z"
        fill="#AB58FF" />
    <path
        d="M69.0644 51.7347C69.0644 49.7699 70.5895 48.177 72.4706 48.177C74.3518 48.177 75.8769 49.7699 75.8769 51.7347V54.2963C75.8769 56.2611 74.3518 57.854 72.4706 57.854C70.5895 57.854 69.0644 56.2611 69.0644 54.2963V51.7347Z"
        fill="#AB58FF" />
    <path
        d="M53.8046 36.6501C53.8046 34.6852 55.3297 33.0924 57.2109 33.0924C59.092 33.0924 60.6171 34.6852 60.6171 36.6501V39.2116C60.6171 41.1765 59.092 42.7693 57.2109 42.7693C55.3297 42.7693 53.8046 41.1765 53.8046 39.2116V36.6501Z"
        fill="#AB58FF" />
    <path fill-rule="evenodd" clip-rule="evenodd"
        d="M68.3817 4.59375L83.9458 20.85L68.104 37.3964L52.6814 20.8446L68.3817 4.59375ZM53.8323 20.8554L68.1119 36.1806L82.7897 20.85L68.3791 5.79854L53.8323 20.8554Z"
        fill="white" />
    <path
        d="M50.123 19.7116C50.123 17.7467 51.6481 16.1539 53.5293 16.1539C55.4104 16.1539 56.9355 17.7467 56.9355 19.7116V22.2731C56.9355 24.238 55.4104 25.8308 53.5293 25.8308C51.6481 25.8308 50.123 24.238 50.123 22.2731V19.7116Z"
        fill="#AB58FF" />
    <path
        d="M64.8379 35.65C64.8379 33.6852 66.3629 32.0923 68.2441 32.0923C70.1252 32.0923 71.6503 33.6852 71.6503 35.65V38.2116C71.6503 40.1764 70.1252 41.7693 68.2441 41.7693C66.3629 41.7693 64.8379 40.1764 64.8379 38.2116V35.65Z"
        fill="#AB58FF" />
    <path
        d="M80.0976 19.1423C80.0976 17.1775 81.6227 15.5846 83.5039 15.5846C85.385 15.5846 86.9101 17.1775 86.9101 19.1423V21.7039C86.9101 23.6687 85.385 25.2616 83.5039 25.2616C81.6227 25.2616 80.0976 23.6687 80.0976 21.7039V19.1423Z"
        fill="#AB58FF" />
    <path
        d="M64.8379 4.0577C64.8379 2.09283 66.3629 0.5 68.2441 0.5C70.1252 0.5 71.6503 2.09283 71.6503 4.0577V6.61924C71.6503 8.5841 70.1252 10.1769 68.2441 10.1769C66.3629 10.1769 64.8379 8.5841 64.8379 6.61924V4.0577Z"
        fill="#AB58FF" />
    <path fill-rule="evenodd" clip-rule="evenodd"
        d="M68.3817 36.1862L83.9458 52.4424L68.104 68.9888L52.6814 52.437L68.3817 36.1862ZM53.8323 52.4479L68.1119 67.773L82.7897 52.4424L68.3791 37.391L53.8323 52.4479Z"
        fill="white" />
    <path
        d="M50.123 51.304C50.123 49.3391 51.6481 47.7463 53.5293 47.7463C55.4104 47.7463 56.9355 49.3391 56.9355 51.304V53.8655C56.9355 55.8304 55.4104 57.4232 53.5293 57.4232C51.6481 57.4232 50.123 55.8304 50.123 53.8655V51.304Z"
        fill="#AB58FF" />
    <path
        d="M64.8379 67.2424C64.8379 65.2776 66.3629 63.6847 68.2441 63.6847C70.1252 63.6847 71.6503 65.2776 71.6503 67.2424V69.804C71.6503 71.7688 70.1252 73.3617 68.2441 73.3617C66.3629 73.3617 64.8379 71.7688 64.8379 69.804V67.2424Z"
        fill="#AB58FF" />
    <path
        d="M80.0976 50.7347C80.0976 48.7699 81.6227 47.177 83.5039 47.177C85.385 47.177 86.9101 48.7699 86.9101 50.7347V53.2963C86.9101 55.2611 85.385 56.854 83.5039 56.854C81.6227 56.854 80.0976 55.2611 80.0976 53.2963V50.7347Z"
        fill="#AB58FF" />
    <path
        d="M64.8379 35.6501C64.8379 33.6852 66.3629 32.0924 68.2441 32.0924C70.1252 32.0924 71.6503 33.6852 71.6503 35.6501V38.2116C71.6503 40.1765 70.1252 41.7693 68.2441 41.7693C66.3629 41.7693 64.8379 40.1765 64.8379 38.2116V35.6501Z"
        fill="#AB58FF" />
    <path fill-rule="evenodd" clip-rule="evenodd"
        d="M86.6385 5.73217L102.203 21.9884L86.3608 38.5348L70.9383 21.983L86.6385 5.73217ZM72.0891 21.9939L86.3687 37.319L101.046 21.9884L86.6359 6.93697L72.0891 21.9939Z"
        fill="white" />
    <path
        d="M68.3799 20.85C68.3799 18.8851 69.9049 17.2923 71.7861 17.2923C73.6673 17.2923 75.1923 18.8851 75.1923 20.85V23.4115C75.1923 25.3764 73.6673 26.9692 71.7861 26.9692C69.9049 26.9692 68.3799 25.3764 68.3799 23.4115V20.85Z"
        fill="#AB58FF" />
    <path
        d="M83.0947 36.7885C83.0947 34.8236 84.6197 33.2308 86.5009 33.2308C88.3821 33.2308 89.9071 34.8236 89.9071 36.7885V39.35C89.9071 41.3149 88.3821 42.9077 86.5009 42.9077C84.6197 42.9077 83.0947 41.3149 83.0947 39.35V36.7885Z"
        fill="#AB58FF" />
    <path
        d="M98.3545 20.2808C98.3545 18.3159 99.8795 16.7231 101.761 16.7231C103.642 16.7231 105.167 18.3159 105.167 20.2808V22.8423C105.167 24.8072 103.642 26.4 101.761 26.4C99.8795 26.4 98.3545 24.8072 98.3545 22.8423V20.2808Z"
        fill="#AB58FF" />
    <path
        d="M83.0947 5.19612C83.0947 3.23126 84.6197 1.63843 86.5009 1.63843C88.3821 1.63843 89.9071 3.23126 89.9071 5.19612V7.75766C89.9071 9.72252 88.3821 11.3154 86.5009 11.3154C84.6197 11.3154 83.0947 9.72252 83.0947 7.75766V5.19612Z"
        fill="#AB58FF" />
    <path fill-rule="evenodd" clip-rule="evenodd"
        d="M86.6385 37.3246L102.203 53.5808L86.3608 70.1272L70.9383 53.5754L86.6385 37.3246ZM72.0891 53.5863L86.3687 68.9114L101.046 53.5808L86.6359 38.5294L72.0891 53.5863Z"
        fill="white" />
    <path
        d="M68.3799 52.4424C68.3799 50.4775 69.9049 48.8847 71.7861 48.8847C73.6673 48.8847 75.1923 50.4775 75.1923 52.4424V55.0039C75.1923 56.9688 73.6673 58.5616 71.7861 58.5616C69.9049 58.5616 68.3799 56.9688 68.3799 55.0039V52.4424Z"
        fill="#AB58FF" />
    <path
        d="M83.0947 68.3809C83.0947 66.416 84.6197 64.8232 86.5009 64.8232C88.3821 64.8232 89.9071 66.416 89.9071 68.3809V70.9424C89.9071 72.9073 88.3821 74.5001 86.5009 74.5001C84.6197 74.5001 83.0947 72.9073 83.0947 70.9424V68.3809Z"
        fill="#AB58FF" />
    <path
        d="M98.3545 51.8732C98.3545 49.9083 99.8795 48.3155 101.761 48.3155C103.642 48.3155 105.167 49.9083 105.167 51.8732V54.4347C105.167 56.3996 103.642 57.9924 101.761 57.9924C99.8795 57.9924 98.3545 56.3996 98.3545 54.4347V51.8732Z"
        fill="#AB58FF" />
    <path
        d="M83.0947 36.7885C83.0947 34.8237 84.6197 33.2308 86.5009 33.2308C88.3821 33.2308 89.9071 34.8237 89.9071 36.7885V39.3501C89.9071 41.3149 88.3821 42.9078 86.5009 42.9078C84.6197 42.9078 83.0947 41.3149 83.0947 39.3501V36.7885Z"
        fill="#AB58FF" />
    <path fill-rule="evenodd" clip-rule="evenodd"
        d="M107.349 4.59375L122.913 20.85L107.071 37.3964L91.6482 20.8446L107.349 4.59375ZM92.7991 20.8554L107.079 36.1806L121.756 20.85L107.346 5.79854L92.7991 20.8554Z"
        fill="white" />
    <path
        d="M89.0898 19.7116C89.0898 17.7467 90.6149 16.1539 92.496 16.1539C94.3772 16.1539 95.9023 17.7467 95.9023 19.7116V22.2731C95.9023 24.238 94.3772 25.8308 92.496 25.8308C90.6149 25.8308 89.0898 24.238 89.0898 22.2731V19.7116Z"
        fill="#AB58FF" />
    <path
        d="M103.805 35.65C103.805 33.6852 105.33 32.0923 107.211 32.0923C109.092 32.0923 110.617 33.6852 110.617 35.65V38.2116C110.617 40.1764 109.092 41.7693 107.211 41.7693C105.33 41.7693 103.805 40.1764 103.805 38.2116V35.65Z"
        fill="#AB58FF" />
    <path
        d="M119.064 19.1423C119.064 17.1775 120.589 15.5846 122.471 15.5846C124.352 15.5846 125.877 17.1775 125.877 19.1423V21.7039C125.877 23.6687 124.352 25.2616 122.471 25.2616C120.589 25.2616 119.064 23.6687 119.064 21.7039V19.1423Z"
        fill="#AB58FF" />
    <path
        d="M103.805 4.0577C103.805 2.09283 105.33 0.5 107.211 0.5C109.092 0.5 110.617 2.09283 110.617 4.0577V6.61924C110.617 8.5841 109.092 10.1769 107.211 10.1769C105.33 10.1769 103.805 8.5841 103.805 6.61924V4.0577Z"
        fill="#AB58FF" />
    <path fill-rule="evenodd" clip-rule="evenodd"
        d="M107.349 36.1862L122.913 52.4424L107.071 68.9888L91.6482 52.437L107.349 36.1862ZM92.7991 52.4479L107.079 67.773L121.756 52.4424L107.346 37.391L92.7991 52.4479Z"
        fill="white" />
    <path
        d="M89.0898 51.304C89.0898 49.3391 90.6149 47.7463 92.496 47.7463C94.3772 47.7463 95.9023 49.3391 95.9023 51.304V53.8655C95.9023 55.8304 94.3772 57.4232 92.496 57.4232C90.6149 57.4232 89.0898 55.8304 89.0898 53.8655V51.304Z"
        fill="#AB58FF" />
    <path
        d="M103.805 67.2424C103.805 65.2776 105.33 63.6847 107.211 63.6847C109.092 63.6847 110.617 65.2776 110.617 67.2424V69.804C110.617 71.7688 109.092 73.3617 107.211 73.3617C105.33 73.3617 103.805 71.7688 103.805 69.804V67.2424Z"
        fill="#AB58FF" />
    <path
        d="M119.064 50.7347C119.064 48.7699 120.589 47.177 122.471 47.177C124.352 47.177 125.877 48.7699 125.877 50.7347V53.2963C125.877 55.2611 124.352 56.854 122.471 56.854C120.589 56.854 119.064 55.2611 119.064 53.2963V50.7347Z"
        fill="#AB58FF" />
    <path
        d="M103.805 35.6501C103.805 33.6852 105.33 32.0924 107.211 32.0924C109.092 32.0924 110.617 33.6852 110.617 35.6501V38.2116C110.617 40.1765 109.092 41.7693 107.211 41.7693C105.33 41.7693 103.805 40.1765 103.805 38.2116V35.6501Z"
        fill="#AB58FF" />
</svg>