<svg width="102" height="76" viewBox="0 0 102 76" fill="none" xmlns="http://www.w3.org/2000/svg">
    <path fill-rule="evenodd" clip-rule="evenodd"
        d="M33.9171 7.87029L62.5432 36.4964L33.4063 65.6334L5.04045 36.4868L33.9171 7.87029ZM7.15716 36.506L33.4208 63.4925L60.4169 36.4964L33.9123 9.99185L7.15716 36.506Z"
        fill="white" />
    <path
        d="M0.334961 34.4917C0.334961 31.0317 3.13983 28.2268 6.59981 28.2268C10.0598 28.2268 12.8647 31.0317 12.8647 34.4917V39.0024C12.8647 42.4623 10.0598 45.2672 6.59981 45.2672C3.13983 45.2672 0.334961 42.4623 0.334961 39.0024V34.4917Z"
        fill="#AB58FF" />
    <path
        d="M27.3991 62.5582C27.3991 59.0982 30.204 56.2933 33.6639 56.2933C37.1239 56.2933 39.9288 59.0982 39.9288 62.5582V67.0689C39.9288 70.5288 37.1239 73.3337 33.6639 73.3337C30.204 73.3337 27.3991 70.5288 27.3991 67.0689V62.5582Z"
        fill="#AB58FF" />
    <path
        d="M55.4656 33.4893C55.4656 30.0293 58.2705 27.2244 61.7304 27.2244C65.1904 27.2244 67.9953 30.0293 67.9953 33.4893V38C67.9953 41.46 65.1904 44.2648 61.7304 44.2648C58.2705 44.2648 55.4656 41.46 55.4656 38V33.4893Z"
        fill="#AB58FF" />
    <path
        d="M27.3991 6.92634C27.3991 3.46637 30.204 0.661499 33.6639 0.661499C37.1239 0.661499 39.9288 3.46637 39.9288 6.92634V11.437C39.9288 14.897 37.1239 17.7019 33.6639 17.7019C30.204 17.7019 27.3991 14.897 27.3991 11.437V6.92634Z"
        fill="#AB58FF" />
    <path fill-rule="evenodd" clip-rule="evenodd"
        d="M67.4967 9.87505L96.1228 38.5012L66.9859 67.6381L38.62 38.4916L67.4967 9.87505ZM40.7368 38.5107L67.0004 65.4972L93.9964 38.5012L67.4919 11.9966L40.7368 38.5107Z"
        fill="white" />
    <path
        d="M33.9146 36.4964C33.9146 33.0364 36.7194 30.2316 40.1794 30.2316C43.6394 30.2316 46.4442 33.0364 46.4442 36.4964V41.0071C46.4442 44.4671 43.6394 47.272 40.1794 47.272C36.7194 47.272 33.9146 44.4671 33.9146 41.0071V36.4964Z"
        fill="#AB58FF" />
    <path
        d="M60.9787 64.5629C60.9787 61.103 63.7835 58.2981 67.2435 58.2981C70.7035 58.2981 73.5084 61.103 73.5084 64.5629V69.0736C73.5084 72.5336 70.7035 75.3385 67.2435 75.3385C63.7835 75.3385 60.9787 72.5336 60.9787 69.0736V64.5629Z"
        fill="#AB58FF" />
    <path
        d="M89.0452 35.4941C89.0452 32.0341 91.8501 29.2292 95.31 29.2292C98.77 29.2292 101.575 32.0341 101.575 35.4941V40.0047C101.575 43.4647 98.77 46.2696 95.31 46.2696C91.8501 46.2696 89.0452 43.4647 89.0452 40.0047V35.4941Z"
        fill="#AB58FF" />
    <path
        d="M60.9787 8.93111C60.9787 5.47113 63.7835 2.66626 67.2435 2.66626C70.7035 2.66626 73.5084 5.47113 73.5084 8.93111V13.4418C73.5084 16.9018 70.7035 19.7066 67.2435 19.7066C63.7835 19.7066 60.9787 16.9018 60.9787 13.4418V8.93111Z"
        fill="#AB58FF" />
</svg>