<svg width="68" height="72" viewBox="0 0 68 72" fill="none" xmlns="http://www.w3.org/2000/svg">
    <path fill-rule="evenodd" clip-rule="evenodd"
        d="M33.7507 7.14211L62.5206 35.5034L33.2373 64.3709L4.72911 35.4939L33.7507 7.14211ZM6.85645 35.5129L33.2519 62.2498L60.3835 35.5034L33.7459 9.24405L6.85645 35.5129Z"
        fill="white" />
    <path
        d="M0 33.5172C0 30.0893 2.81895 27.3103 6.2963 27.3103C9.77364 27.3103 12.5926 30.0893 12.5926 33.5172V37.9862C12.5926 41.4142 9.77364 44.1931 6.2963 44.1931C2.81895 44.1931 0 41.4142 0 37.9862V33.5172Z"
        fill="#AB58FF" />
    <path
        d="M27.2 61.3241C27.2 57.8962 30.0189 55.1172 33.4963 55.1172C36.9736 55.1172 39.7926 57.8962 39.7926 61.3241V65.7931C39.7926 69.2211 36.9736 72 33.4963 72C30.0189 72 27.2 69.2211 27.2 65.7931V61.3241Z"
        fill="#AB58FF" />
    <path
        d="M55.4074 32.5241C55.4074 29.0962 58.2264 26.3172 61.7037 26.3172C65.1811 26.3172 68 29.0962 68 32.5241V36.9931C68 40.4211 65.1811 43.2 61.7037 43.2C58.2264 43.2 55.4074 40.4211 55.4074 36.9931V32.5241Z"
        fill="#AB58FF" />
    <path
        d="M27.2 6.2069C27.2 2.77892 30.0189 0 33.4963 0C36.9736 0 39.7926 2.77892 39.7926 6.2069V10.6759C39.7926 14.1038 36.9736 16.8828 33.4963 16.8828C30.0189 16.8828 27.2 14.1038 27.2 10.6759V6.2069Z"
        fill="#AB58FF" />
</svg>